<svg
  width="29"
  height="28"
  viewBox="0 0 29 28"
  fill="#667085"
  xmlns="http://www.w3.org/2000/svg"
>
  <path
    fillRule="evenodd"
    clipRule="evenodd"
    d="M12.2969 3.55469C10.8245 3.55469 9.6309 4.7483 9.6309 6.2207V7.10938H6.29462C4.82222 7.10938 3.6286 8.30299 3.6286 9.77539V20.4395C3.6286 21.9119 4.82222 23.1055 6.29462 23.1055H23.4758C24.9482 23.1055 26.1419 21.9119 26.1419 20.4395V9.77539C26.1419 8.30299 24.9482 7.10938 23.4758 7.10938H19.7025V6.2207C19.7025 4.7483 18.5089 3.55469 17.0365 3.55469H12.2969ZM18.8148 8.88672C18.8145 8.88672 18.8142 8.88672 18.8138 8.88672H10.5196C10.5193 8.88672 10.5189 8.88672 10.5186 8.88672H6.29462C5.80382 8.88672 5.40595 9.28459 5.40595 9.77539V10.9666L14.5355 14.8792C14.759 14.975 15.012 14.975 15.2356 14.8792L24.3645 10.9669V9.77539C24.3645 9.28459 23.9666 8.88672 23.4758 8.88672H18.8148ZM17.9252 7.10938V6.2207C17.9252 5.7299 17.5273 5.33203 17.0365 5.33203H12.2969C11.8061 5.33203 11.4082 5.7299 11.4082 6.2207V7.10938H17.9252ZM5.40595 20.4395V12.9003L13.8353 16.5129C14.506 16.8003 15.2651 16.8003 15.9357 16.5129L24.3645 12.9006V20.4395C24.3645 20.9303 23.9666 21.3281 23.4758 21.3281H6.29462C5.80382 21.3281 5.40595 20.9303 5.40595 20.4395Z"
    fill=""
  />
</svg>
