<svg xmlns="http://www.w3.org/2000/svg" viewBox="0 0 64 64"><g id="telescope"><circle cx="57" cy="26" r="2" style="fill:#ffde55" id="id_101"></circle><polygon points="58.04 15.69 55.21 18.51 53.8 17.1 43.9 7.2 42.49 5.79 45.31 2.96 46.73 4.38 56.63 14.28 58.04 15.69" style="fill:#ff7956" id="id_102"></polygon><path d="M56.63,4.37a7.007,7.007,0,0,1,0,9.9v.01l-9.9-9.9V4.37A7.007,7.007,0,0,1,56.63,4.37Z" style="fill:#00eed1" id="id_103"></path><polygon points="53.8 17.1 46.73 24.17 45.31 22.76 38.24 15.69 36.83 14.27 43.9 7.2 53.8 17.1" style="fill:#2488ff" id="id_104"></polygon><polygon points="53.8 17.1 46.73 24.17 45.31 22.76 44.73 22.18 49.8 17.1 41.9 9.2 43.9 7.2 53.8 17.1" style="fill:#006df0" id="id_105"></polygon><polygon points="38.24 15.69 45.31 22.76 35.96 32.11 31.17 36.9 24.1 29.83 38.24 15.69" style="fill:#bb7fd9" id="id_106"></polygon><path d="M42,37a4.987,4.987,0,0,1-2.65,4.41,4.975,4.975,0,0,1-4.7,0,5.049,5.049,0,0,1-2.03-1.99l.67-.4L31.17,36.9l4.79-4.79A5.1,5.1,0,0,1,37,32,5,5,0,0,1,42,37Z" style="fill:#ffde55" id="id_107"></path><path d="M42,37a4.987,4.987,0,0,1-2.65,4.41A4.905,4.905,0,0,1,37,42a4.787,4.787,0,0,1-2-.43,2.213,2.213,0,0,0,.35-.16,5,5,0,0,0,.09-8.78l.52-.52A5.1,5.1,0,0,1,37,32,5,5,0,0,1,42,37Z" style="fill:#ffcd00" id="id_108"></path><circle cx="37" cy="37" r="2" style="fill:#2488ff" id="id_109"></circle><polygon points="33.29 39.02 32.62 39.42 29.76 41.14 27.64 39.02 21.98 33.36 19.86 31.24 21.98 27.71 24.1 29.83 31.17 36.9 33.29 39.02" style="fill:#ff7956" id="id_110"></polygon><circle cx="27" cy="14" r="2" style="fill:#ffde55" id="id_111"></circle><polygon points="27.64 39.02 19.15 46.09 18.44 45.38 15.62 42.56 14.91 41.85 21.98 33.36 27.64 39.02" style="fill:#2488ff" id="id_112"></polygon><polygon points="18.44 45.38 15.62 48.21 15.62 48.22 12.79 45.39 12.79 45.38 15.62 42.56 18.44 45.38" style="fill:#ff7956" id="id_113"></polygon><path d="M56.63,14.27v.01l-2.42-2.42a7.011,7.011,0,0,0-4.53-9.25,7,7,0,0,1,6.95,11.66Z" style="fill:#00ddc2" id="id_114"></path><polygon points="45.31 22.76 35.96 32.11 31.17 36.9 29.17 34.9 31.96 32.11 41.31 22.76 36.24 17.69 38.24 15.69 45.31 22.76" style="fill:#a25bcd" id="id_115"></polygon><polygon points="27.64 39.02 19.15 46.09 18.44 45.38 17.33 44.27 23.64 39.02 20.16 35.54 21.98 33.36 27.64 39.02" style="fill:#006df0" id="id_116"></polygon><polygon points="18.44 45.38 15.62 48.21 15.62 48.22 13.61 46.21 14.44 45.38 15.15 46.09 17.33 44.27 18.44 45.38" style="fill:#ff6243" id="id_117"></polygon><path d="M16.32,48.92a2,2,0,1,1-2.83,2.83L9.25,47.51a2,2,0,0,1,0-2.83,2.016,2.016,0,0,1,2.83,0l.71.71,2.83,2.83Z" style="fill:#00eed1" id="id_118"></path><polygon points="58.04 15.69 55.21 18.51 53.21 16.51 54.04 15.69 52.63 14.28 43.31 4.96 45.31 2.96 46.73 4.38 56.63 14.28 58.04 15.69" style="fill:#ff6243" id="id_119"></polygon><polygon points="33.29 39.02 32.62 39.42 29.76 41.14 28.26 39.64 28.62 39.42 29.29 39.02 20.48 30.21 21.98 27.71 33.29 39.02" style="fill:#ff6243" id="id_120"></polygon><path d="M16.32,51.75a1.992,1.992,0,0,1-2.83,0l-.72-.72a1.983,1.983,0,0,0-.45-2.11l-.7-.7L8.79,45.39a2.018,2.018,0,0,1,.46-.71,2.016,2.016,0,0,1,2.83,0l.71.71,2.83,2.83.7.7A2,2,0,0,1,16.32,51.75Z" style="fill:#00ddc2" id="id_121"></path><circle cx="12" cy="29" r="2" style="fill:#ffde55" id="id_122"></circle><path d="M43,37a6,6,0,0,0-4.667-5.848l6.98-6.98.708.707a1,1,0,0,0,1.414,0L53.8,18.515l.707.707a1,1,0,0,0,1.414,0l2.829-2.828a1,1,0,0,0,0-1.415l-.756-.756A7.992,7.992,0,0,0,46.777,3.007l-.756-.756a1.031,1.031,0,0,0-1.415,0L41.778,5.08a1,1,0,0,0,0,1.414l.707.707-6.364,6.364a1,1,0,0,0,0,1.414l.707.708L24.1,28.414,22.687,27a1,1,0,0,0-1.565.192L19,30.728a1,1,0,0,0,.15,1.221l1.476,1.476L14.14,41.209a1,1,0,0,0,.061,1.348l-1.414,1.414a3,3,0,0,0-4.243,4.242l4.243,4.243a3,3,0,1,0,4.242-4.243L18.443,46.8a1,1,0,0,0,1.348.061l7.784-6.486,1.476,1.476a1,1,0,0,0,1.221.15l2.066-1.24a6,6,0,0,0,.927.93l-13.1,19.757,1.666,1.106,13.194-19.9a5.975,5.975,0,0,0,.973.255V62h2V42.91a5.92,5.92,0,0,0,.978-.252L52.167,62.553l1.666-1.106-13.1-19.758A5.989,5.989,0,0,0,43,37Zm-6-4a4,4,0,1,1-2.972,6.665.971.971,0,0,0,.257-.522,1,1,0,0,0-.285-.83L32.586,36.9l3.838-3.837A4.134,4.134,0,0,1,37,33ZM51.678,3.322A5.994,5.994,0,0,1,56.565,12.8l-8.36-8.36A5.955,5.955,0,0,1,51.678,3.322Zm-6.365,1.05L56.628,15.687,55.213,17.1,43.9,5.787ZM43.9,8.615,52.385,17.1l-5.657,5.657-8.486-8.486ZM38.242,17.1,43.9,22.758,31.172,35.485l-5.657-5.657ZM15.615,51.042a1,1,0,0,1-1.414,0L9.958,46.8a1,1,0,0,1,1.415-1.414l4.242,4.242A1,1,0,0,1,15.615,51.042Zm0-4.243L14.2,45.385l1.414-1.414,1.414,1.414Zm3.6-2.06-2.951-2.951,5.786-6.942,4.107,4.107Zm10.7-4.856-8.8-8.8,1.061-1.768,9.5,9.5Z" id="id_123"></path><path d="M57,23a3,3,0,1,0,3,3A3,3,0,0,0,57,23Zm0,4a1,1,0,1,1,1-1A1,1,0,0,1,57,27Z" id="id_124"></path><path d="M12,32a3,3,0,1,0-3-3A3,3,0,0,0,12,32Zm0-4a1,1,0,1,1-1,1A1,1,0,0,1,12,28Z" id="id_125"></path><path d="M27,17a3,3,0,1,0-3-3A3,3,0,0,0,27,17Zm0-4a1,1,0,1,1-1,1A1,1,0,0,1,27,13Z" id="id_126"></path><rect x="46" y="34" width="2" height="2" id="id_127"></rect><rect x="48" y="32" width="2" height="2" id="id_128"></rect><rect x="48" y="36" width="2" height="2" id="id_129"></rect><rect x="50" y="34" width="2" height="2" id="id_130"></rect><rect x="16" y="19" width="2" height="2" id="id_131"></rect><rect x="18" y="17" width="2" height="2" id="id_132"></rect><rect x="18" y="21" width="2" height="2" id="id_133"></rect><rect x="20" y="19" width="2" height="2" id="id_134"></rect><rect x="33" y="4" width="2" height="2" id="id_135"></rect><rect x="35" y="2" width="2" height="2" id="id_136"></rect><rect x="35" y="6" width="2" height="2" id="id_137"></rect><rect x="37" y="4" width="2" height="2" id="id_138"></rect><path d="M37,40a3,3,0,1,0-3-3A3,3,0,0,0,37,40Zm0-4a1,1,0,1,1-1,1A1,1,0,0,1,37,36Z" id="id_139"></path><rect x="2" y="39" width="2" height="2" id="id_140"></rect><rect x="4" y="37" width="2" height="2" id="id_141"></rect><rect x="4" y="41" width="2" height="2" id="id_142"></rect><rect x="6" y="39" width="2" height="2" id="id_143"></rect><rect x="2" y="58" width="2" height="2" id="id_144"></rect><rect x="4" y="56" width="2" height="2" id="id_145"></rect><rect x="4" y="60" width="2" height="2" id="id_146"></rect><rect x="6" y="58" width="2" height="2" id="id_147"></rect><rect x="12" y="57" width="2" height="2" id="id_148"></rect><rect x="14" y="55" width="2" height="2" id="id_149"></rect><rect x="14" y="59" width="2" height="2" id="id_150"></rect><rect x="16" y="57" width="2" height="2" id="id_151"></rect></g></svg>