<svg
  width="28"
  height="28"
  viewBox="0 0 28 28"
  fill="#667085"
  xmlns="http://www.w3.org/2000/svg"
>
  <path
    fillRule="evenodd"
    clipRule="evenodd"
    d="M23.7507 1.28757C24.0978 0.940553 24.6605 0.940611 25.0075 1.28769C25.3545 1.63478 25.3544 2.19745 25.0074 2.54447L19.8787 7.67208C19.5316 8.0191 18.9689 8.01904 18.6219 7.67195C18.2749 7.32487 18.275 6.76219 18.622 6.41518L23.7507 1.28757ZM19.4452 3.1553C19.7922 2.80822 19.7921 2.24554 19.4451 1.89853C19.098 1.55151 18.5353 1.55157 18.1883 1.89866L16.4386 3.64866C16.0916 3.99574 16.0917 4.55842 16.4388 4.90543C16.7859 5.25244 17.3485 5.25238 17.6955 4.9053L19.4452 3.1553ZM13.8188 4.02442C13.6691 3.72109 13.3602 3.52905 13.0219 3.52905C12.6837 3.52905 12.3747 3.72109 12.225 4.02442L9.39921 9.75015L3.08049 10.6683C2.74574 10.717 2.46763 10.9514 2.3631 11.2731C2.25857 11.5948 2.34575 11.948 2.58797 12.1841L7.16024 16.641L6.08087 22.9342C6.02369 23.2676 6.16075 23.6045 6.43441 23.8033C6.70807 24.0022 7.07088 24.0284 7.37029 23.871L13.0219 20.8997L18.6736 23.871C18.973 24.0284 19.3358 24.0022 19.6094 23.8033C19.8831 23.6045 20.0202 23.2676 19.963 22.9342L18.8836 16.641L23.4559 12.1841C23.6981 11.948 23.7853 11.5948 23.6807 11.2731C23.5762 10.9514 23.2981 10.717 22.9634 10.6683L16.6446 9.75015L13.8188 4.02442ZM10.7862 10.9557L13.0219 6.42572L15.2576 10.9557C15.387 11.218 15.6373 11.3998 15.9267 11.4418L20.9258 12.1683L17.3084 15.6944C17.099 15.8985 17.0034 16.1927 17.0529 16.4809L17.9068 21.4599L13.4355 19.1091C13.1766 18.973 12.8673 18.973 12.6084 19.1091L8.13703 21.4599L8.99098 16.4809C9.04043 16.1927 8.94485 15.8985 8.7354 15.6944L5.118 12.1683L10.1171 11.4418C10.4066 11.3998 10.6568 11.218 10.7862 10.9557ZM25.2694 5.97276C25.6165 6.31978 25.6166 6.88245 25.2696 7.22954L23.5199 8.97954C23.1729 9.32662 22.6102 9.32668 22.2632 8.97967C21.9161 8.63265 21.916 8.06998 22.263 7.72289L24.0127 5.97289C24.3597 5.62581 24.9224 5.62575 25.2694 5.97276Z"
    fill=""
  />
</svg>
