<svg
  width="29"
  height="28"
  viewBox="0 0 29 28"
  fill="#667085"
  xmlns="http://www.w3.org/2000/svg"
>
  <path
    fillRule="evenodd"
    clipRule="evenodd"
    d="M11.4072 8.64984C11.4072 6.77971 12.9232 5.26367 14.7934 5.26367C16.6635 5.26367 18.1795 6.77971 18.1795 8.64984C18.1795 10.52 16.6635 12.036 14.7934 12.036C12.9232 12.036 11.4072 10.52 11.4072 8.64984ZM14.7934 3.48633C11.9416 3.48633 9.62986 5.79811 9.62986 8.64984C9.62986 11.5016 11.9416 13.8133 14.7934 13.8133C17.6451 13.8133 19.9569 11.5016 19.9569 8.64984C19.9569 5.79811 17.6451 3.48633 14.7934 3.48633ZM12.8251 15.6037C8.49586 15.6037 4.98632 19.1133 4.98632 23.4425V23.847C4.98632 24.3378 5.38419 24.7357 5.87499 24.7357C6.36579 24.7357 6.76366 24.3378 6.76366 23.847V23.4425C6.76366 20.0949 9.47746 17.3811 12.8251 17.3811H16.7635C20.1111 17.3811 22.8249 20.0949 22.8249 23.4425V23.847C22.8249 24.3378 23.2228 24.7357 23.7136 24.7357C24.2044 24.7357 24.6023 24.3378 24.6023 23.847V23.4425C24.6023 19.1133 21.0927 15.6037 16.7635 15.6037H12.8251Z"
    fill=""
  />
</svg>
