<svg
  width="22"
  height="22"
  viewBox="0 0 22 22"
  fill="none"
  xmlns="http://www.w3.org/2000/svg"
>
  <path
    d="M21.125 7.67453V18.875C21.1244 19.4716 20.8872 20.0435 20.4653 20.4654C20.0435 20.8872 19.4716 21.1244 18.875 21.125H15.125C14.7272 21.125 14.3456 20.967 14.0643 20.6857C13.783 20.4044 13.625 20.0229 13.625 19.625V15.5C13.625 15.3011 13.546 15.1104 13.4053 14.9697C13.2647 14.8291 13.0739 14.75 12.875 14.75H9.125C8.92609 14.75 8.73532 14.8291 8.59467 14.9697C8.45402 15.1104 8.375 15.3011 8.375 15.5V19.625C8.375 20.0229 8.21696 20.4044 7.93566 20.6857C7.65436 20.967 7.27282 21.125 6.875 21.125H3.125C2.52845 21.1244 1.9565 20.8872 1.53467 20.4654C1.11284 20.0435 0.875596 19.4716 0.875 18.875V7.67453C0.875561 7.41551 0.942869 7.16101 1.07043 6.93558C1.19799 6.71015 1.3815 6.52139 1.60325 6.38753L10.2282 1.21253C10.4614 1.07259 10.7282 0.998657 11.0002 0.998657C11.2721 0.998657 11.539 1.07259 11.7721 1.21253L20.3971 6.38753C20.6188 6.52144 20.8022 6.71021 20.9297 6.93564C21.0572 7.16107 21.1245 7.41555 21.125 7.67453Z"
    fill="#A5A5A5"
  />
</svg>
