<svg width="28" height="28" viewBox="0 0 28 28" fill="#667085">
  <path
    d="M7 12.9998C6.44772 12.9998 6 13.4475 6 13.9998C6 14.5521 6.44772 14.9998 7 14.9998V12.9998ZM21.0008 14.9998C21.5531 14.9998 22.0008 14.5521 22.0008 13.9998C22.0008 13.4475 21.5531 12.9998 21.0008 12.9998V14.9998ZM15.0003 6.99951C15.0003 6.44723 14.5526 5.99951 14.0003 5.99951C13.448 5.99951 13.0003 6.44723 13.0003 6.99951H15.0003ZM13.0003 21.0003C13.0003 21.5526 13.448 22.0003 14.0003 22.0003C14.5526 22.0003 15.0003 21.5526 15.0003 21.0003H13.0003ZM7 14.9998H21.0008V12.9998H7V14.9998ZM13.0003 6.99951V21.0003H15.0003V6.99951H13.0003Z"
  />
</svg>
