<svg
  width="24"
  height="24"
  fill="#667085"
  focusable="false"
  viewBox="0 0 24 24"
  xmlns="http://www.w3.org/2000/svg"
>
  <path
    fill-rule="evenodd"
    clip-rule="evenodd"
    d="m15.6 1.97 5.143 5.143a.846.846 0 0 1 .257.6v10.286a.86.86 0 0 1-.857.857H7.286a.86.86 0 0 1-.857-.857V2.57a.86.86 0 0 1 .857-.857H15c.214 0 .429.086.6.257ZM15 7.713h3.943L15 3.77v3.943ZM8.143 3.427v13.715h11.143V9.427h-5.143a.86.86 0 0 1-.857-.857V3.427H8.143ZM3 5.141h1.714v15.428h11.143v1.715h-12A.86.86 0 0 1 3 21.425V5.141Z"
  ></path>
</svg>
